<svg preserveAspectRatio="none" width="100%" height="100%" overflow="visible" style="display: block;" viewBox="0 0 100 41.2207" fill="none" xmlns="http://www.w3.org/2000/svg">
<path id="Union" d="M13.3779 41.2207C5.9895 41.2207 6.45917e-07 35.2312 0 27.8428H13.3779V41.2207ZM17.2236 41.2207H13.8799V27.8428H17.2236V41.2207ZM31.1035 27.8428C31.1035 35.2312 25.114 41.2207 17.7256 41.2207V27.8428H31.1035ZM47.8262 41.2207H34.4482V27.8428H47.8262V41.2207ZM51.6719 41.2207H48.3281V27.8428H51.6719V41.2207ZM65.5518 41.2207H52.1738V27.8428H65.5518V41.2207ZM100 41.2207H86.6221V27.8428L100 41.2207ZM82.2744 41.1377H68.8965V27.7588H82.2744V41.1377ZM13.3779 27.3408C5.9895 27.3408 -6.45917e-07 21.3513 0 13.9629H13.3779V27.3408ZM17.2236 27.3408H13.8799V13.9629H17.2236V27.3408ZM17.7256 13.9629C25.1139 13.9629 31.1033 19.9525 31.1035 27.3408H17.7256V13.9629ZM47.8262 27.3408H34.4482C34.4484 19.9525 40.4379 13.9629 47.8262 13.9629V27.3408ZM51.6719 27.3408H48.3281V13.9629H51.6719V27.3408ZM65.5518 13.9629C65.5518 21.3513 59.5623 27.3408 52.1738 27.3408V13.9629H65.5518ZM82.2744 27.2578H68.8965V13.8799H82.2744V27.2578ZM86.1201 27.2578H82.7764V13.8799H86.1201V27.2578ZM13.3779 13.4619H0C9.68877e-07 6.07348 5.98952 0.0839973 13.3779 0.0839844V13.4619ZM17.2236 13.4619H13.8799V0.0839844H17.2236V13.4619ZM17.7256 0.0839844C25.114 0.0839844 31.1035 6.07347 31.1035 13.4619H17.7256V0.0839844ZM47.8262 13.4619H34.4482V0.0839844H47.8262V13.4619ZM51.6719 13.4619H48.3281V0.0839844H51.6719V13.4619ZM65.5518 13.4619H52.1738V0.0839844H65.5518V13.4619ZM86.6221 13.4619V0.0839844H100L86.6221 13.4619ZM82.2744 13.3779H68.8965V0H82.2744V13.3779Z" fill="var(--fill-0, #282828)"/>
</svg>
