<svg width="101" height="120" viewBox="0 0 101 120" fill="none" xmlns="http://www.w3.org/2000/svg">
<path d="M93.2082 86.2851C85.5965 92.0319 78.0739 97.7097 70.5596 103.398C63.7091 108.585 56.8638 113.778 50.0267 118.982C49.1133 119.677 48.1243 119.981 46.9815 119.98C33.3335 119.971 19.6855 119.966 6.03754 120C4.5958 120.004 3.88697 119.557 4.01739 118.024C4.09657 117.093 4.00361 116.149 4.02737 115.212C4.07332 113.4 4.46291 113.006 6.25567 113.001C11.3086 112.989 16.3624 112.945 21.4142 113.022C22.9212 113.045 23.4088 112.567 23.3595 111.062C23.2588 107.992 23.3253 104.916 23.3321 101.843C23.3372 99.5657 23.9283 98.9574 26.1821 98.9533C31.9643 98.9427 37.7472 98.902 43.5285 98.9759C45.0309 98.9951 45.5689 98.512 45.5382 97.0196C45.4687 93.635 45.5048 90.248 45.5174 86.8621C45.525 84.829 46.0993 84.244 48.1091 84.2408C54.0476 84.2314 59.9861 84.2414 65.9246 84.2408C68.0649 84.2406 68.0723 84.2367 68.0759 82.0432C68.0808 79.0219 68.0686 76.0005 68.0725 72.9792C68.0754 70.7367 68.7744 69.9675 71.0605 69.951C76.4257 69.9124 81.7913 69.942 87.1568 69.9423C88.9279 69.9425 90.7 69.8991 92.4698 69.9455C94.4398 69.9971 95.0828 70.6709 95.0916 72.6137C95.1064 75.8954 94.9999 79.1814 95.1374 82.4574C95.2085 84.1495 94.8249 85.4086 93.2082 86.2851Z" fill="#282828"/>
<path d="M7.90244 66.2716C7.53444 67.3188 7.27652 68.2871 6.84173 69.1681C5.98704 70.8998 4.08542 71.6322 2.38065 70.987C0.615544 70.319 -0.422798 68.5738 0.165199 66.7292C1.44454 62.7158 2.86477 58.7465 4.27537 54.7763C4.67327 53.6563 5.55878 52.9024 6.58069 52.3153C10.1477 50.2658 13.6801 48.1535 17.2846 46.1723C22.0023 43.5795 26.8696 44.445 30.3959 48.4967C32.3431 50.7339 34.1718 53.0759 36.0104 55.4051C36.7044 56.2842 37.3446 56.477 38.3893 55.9019C40.3489 54.8233 42.3865 53.8846 44.4049 52.9151C46.298 52.0057 48.387 52.5833 49.2966 54.2321C50.3474 56.1368 49.7686 58.1688 47.7296 59.2695C44.5689 60.9758 41.3845 62.6422 38.1653 64.2349C35.7852 65.4125 34.0698 64.999 32.3168 63.0334C31.4891 62.1054 30.6645 61.1747 29.7429 60.1376C28.7568 61.5243 28.6071 63.0488 28.2565 64.4621C26.901 69.9251 26.065 68.5357 31.3955 70.7202C33.226 71.4704 35.0753 72.1749 36.9009 72.9366C40.0182 74.2371 41.3075 76.4455 40.6258 79.7617C39.7147 84.1937 38.6777 88.6019 37.5954 92.9958C36.9934 95.4396 34.7836 96.89 32.5963 96.4896C30.1806 96.0473 28.5591 93.907 28.9622 91.3046C29.3993 88.4827 30.0416 85.6881 30.702 82.9071C31.0394 81.4862 30.7813 80.6927 29.2554 80.2472C26.9101 79.5624 24.63 78.6559 22.3161 77.8615C21.7872 77.6799 21.2687 77.3776 20.5383 77.5755C19.994 80.1094 19.3952 82.6838 18.8998 85.278C18.565 87.0309 18.0522 88.7053 17.2784 90.3107C14.9729 95.0944 12.7272 99.9077 10.3651 104.663C9.25418 106.9 6.71038 107.718 4.51361 106.751C2.32749 105.789 1.33409 103.549 2.07666 101.177C2.2937 100.484 2.58236 99.8099 2.87963 99.1457C4.38951 95.7721 5.7841 92.3385 7.46933 89.0544C9.03839 85.9966 9.38441 82.7022 9.84057 79.4211C10.8057 72.4788 11.2748 65.4526 13.5292 58.7401C13.6398 58.4109 13.6131 58.0356 13.6828 57.3731C12.0909 58.0318 10.6189 58.3873 10.0434 60.1082C9.36642 62.1321 8.63842 64.139 7.90244 66.2716Z" fill="#282828"/>
<path d="M72.0894 42.25C69.2785 39.3851 66.9784 36.3684 66.22 32.3885C64.6555 24.1789 70.2231 15.7225 78.3971 13.9892C88.5257 11.8415 97.8921 18.986 98.3186 29.3244C98.4861 33.3852 96.9993 36.9629 94.2473 39.9881C93.3378 40.9878 92.4291 41.9908 91.5705 43.0338C90.5194 44.3108 89.8654 45.792 89.7887 47.4493C89.7286 48.748 89.0866 49.1679 87.8862 49.1162C86.795 49.0691 85.6949 49.0401 84.608 49.124C83.1877 49.2336 82.801 48.5322 82.8097 47.2609C82.8354 43.5132 82.8257 39.7649 82.7871 36.0173C82.7776 35.1032 83.1125 34.4367 83.7578 33.8265C84.8164 32.8256 85.8335 31.7802 86.8508 30.7366C87.1386 30.4413 87.4694 30.0703 87.0964 29.6514C86.6928 29.198 86.2188 29.3886 85.8588 29.7314C85.1054 30.4487 84.3686 31.1865 83.6652 31.9527C82.2832 33.4581 82.3011 33.4616 80.8877 32.1154C80.0963 31.3616 79.2874 30.6254 78.4693 29.9007C78.1187 29.59 77.6996 29.2254 77.2513 29.6948C76.8571 30.1075 77.2327 30.4911 77.4962 30.7805C78.4418 31.8189 79.3901 32.8588 80.4005 33.8328C81.0414 34.4507 81.3825 35.0976 81.3732 36.0153C81.3348 39.8155 81.315 43.6168 81.3699 47.4165C81.3887 48.7146 80.906 49.2053 79.6303 49.1261C78.4371 49.0519 77.2365 49.0988 76.0391 49.0932C75.1802 49.0892 74.7026 48.7126 74.5992 47.8088C74.362 45.7362 73.5289 43.9123 72.0894 42.25Z" fill="#F8A450"/>
<path d="M37.7729 33.8514C38.0295 39.4476 34.2016 43.7953 28.9163 44.0695C23.9726 44.326 19.6373 40.1908 19.3496 34.9443C19.107 30.5215 22.6611 26.3541 27.3365 25.5791C31.6606 24.8624 36.3363 28.0392 37.5054 32.4952C37.6107 32.8966 37.6697 33.3102 37.7729 33.8514Z" fill="#282828"/>
<path d="M74.7182 54.2717C73.8693 51.7293 74.4987 50.8092 76.9554 50.8084C80.489 50.8072 84.0228 50.7958 87.5561 50.8305C89.4047 50.8486 89.7899 51.2322 89.8089 52.8284C89.8288 54.5023 89.3648 54.9877 87.5362 55.0042C83.8469 55.0377 80.1571 55.0207 76.4675 55.0332C75.8159 55.0354 75.2267 54.9193 74.7182 54.2717Z" fill="#282828"/>
<path d="M86.8144 58.4999C85.4896 61.4604 80.7273 62.3938 78.4677 60.2479C77.8846 59.6942 77.5162 59.0282 77.4281 58.2202C77.3281 57.3028 77.5905 56.6941 78.6564 56.7022C81.0353 56.7203 83.4147 56.6981 85.7931 56.7387C86.8823 56.7573 87.0054 57.5046 86.8144 58.4999Z" fill="#282828"/>
<path d="M80.5232 4.96661C80.5144 3.77907 80.4973 2.74235 80.4983 1.70564C80.4994 0.630264 81.1158 0.0370209 82.1224 0.00132771C83.0861 -0.0328302 83.7313 0.595133 83.7562 1.53379C83.8165 3.8115 83.8172 6.09464 83.7229 8.37067C83.6853 9.27837 83.0466 9.9354 82.0651 9.88483C81.0977 9.835 80.59 9.18611 80.556 8.22742C80.5194 7.19167 80.5319 6.15417 80.5232 4.96661Z" fill="#F8A450"/>
<path d="M94.3516 10.9093C95.3401 9.62493 96.2596 8.43271 97.1911 7.24991C97.8883 6.36452 98.729 5.66437 99.8135 6.54584C100.859 7.39569 100.455 8.39258 99.7583 9.29136C98.8361 10.4811 97.9086 11.6669 96.9694 12.8431C96.2835 13.7022 95.4412 14.1912 94.4217 13.4486C93.4502 12.741 93.6446 11.859 94.3516 10.9093Z" fill="#F8A450"/>
<path d="M66.8156 12.2076C65.9311 11.1074 65.1084 10.1025 64.3063 9.08136C63.6587 8.25684 63.4141 7.36774 64.3328 6.60476C65.3095 5.79357 66.1625 6.18945 66.8713 7.08023C67.8089 8.25872 68.7582 9.42835 69.6747 10.6231C70.3417 11.4926 70.8935 12.4706 69.8184 13.3655C68.7053 14.2921 67.918 13.4444 67.1885 12.6525C67.083 12.538 66.9868 12.4149 66.8156 12.2076Z" fill="#F8A450"/>
</svg>
