<svg width="141" height="120" viewBox="0 0 141 120" fill="none" xmlns="http://www.w3.org/2000/svg">
<path d="M13.7243 87.3552C20.2663 82.9376 26.8685 78.8449 33.8251 75.3392C44.3659 70.0272 55.1222 69.467 66.1259 73.7743C71.1182 75.7284 76.1312 77.5979 81.5439 78.0753C84.8519 78.3671 88.1596 78.1654 91.4669 78.2179C92.8329 78.2397 94.2003 78.198 95.5653 78.2411C99.8125 78.3753 102.71 80.7668 103.09 84.4175C103.469 88.0598 100.824 91.3812 96.7939 92.2807C95.1516 92.6472 93.4771 92.802 91.7971 92.8716C83.9621 93.1963 76.1574 92.4314 68.3372 92.2217C66.7752 92.1798 65.1872 92.1012 63.7009 93.0625C64.0888 93.6321 64.6401 93.62 65.1203 93.647C74.5011 94.1759 83.8726 95.0107 93.284 94.618C95.1793 94.5389 97.0462 94.1802 98.8389 93.5639C101.959 92.4915 103.939 90.3096 104.727 87.11C104.946 86.2191 105.382 85.644 106.16 85.177C113.416 80.8228 120.375 76.0063 127.485 71.4259C129.394 70.1959 131.406 69.1985 133.661 68.739C134.776 68.5115 135.864 68.6003 136.936 68.8822C140.273 69.7592 141.336 72.9162 139.138 75.5695C135.711 79.7062 131.774 83.3552 127.885 87.0399C122.277 92.3534 116.438 97.4097 110.292 102.094C103.894 106.969 97.3989 111.714 89.9563 114.933C83.1183 117.891 76.0421 118.191 68.8043 116.761C62.5856 115.532 56.7297 113.234 50.892 110.865C47.7622 109.595 44.5354 108.737 41.1687 108.352C35.3389 107.686 30.3081 109.564 25.7391 113.018C23.1827 114.95 20.6273 116.883 18.0701 118.814C15.6703 120.627 13.5963 120.375 11.8377 117.966C8.21331 113.002 4.61897 108.016 1.03272 103.024C-0.373162 101.067 -0.364271 100.146 1.18627 98.2314C4.69447 93.8985 9.01997 90.491 13.7243 87.3552Z" fill="#282828"/>
<path d="M30.3916 48.2278C40.2345 39.1795 51.66 36.0394 64.4406 39.3802C75.8536 42.3635 83.8302 49.6682 88.3638 60.6533C90.2022 65.108 90.7445 69.7481 90.8144 74.5046C90.8354 75.9333 90.3183 76.3837 88.9076 76.4737C81.1558 76.9682 73.9617 74.884 66.878 72.0455C62.2768 70.2018 57.4819 69.0905 52.4863 68.9609C45.8798 68.7896 39.7189 70.4882 33.7905 73.2551C29.6908 75.1686 25.7827 77.4233 21.931 79.7848C21.366 80.1313 20.8278 80.5672 19.8375 80.7239C19.6871 75.8417 19.4409 71.1018 20.4306 66.4188C21.9117 59.4103 25.1481 53.3232 30.3916 48.2278Z" fill="#282828"/>
<path d="M122.94 19.3152C137.725 30.3799 137.771 53.3574 121.621 64.3708C115.979 68.2188 109.617 69.5746 102.924 68.7431C99.4549 68.3121 96.1075 67.0253 93.0012 65.311C92.1159 64.8224 91.5356 64.0498 91.231 63.0198C89.2337 56.2655 85.622 50.5053 80.4379 45.7361C79.9475 45.2849 79.6819 44.7757 79.6365 44.0961C78.9358 33.5928 82.5362 25.0035 91.1855 18.8394C100.762 12.0144 113.344 12.2585 122.94 19.3152ZM97.6565 29.1786C95.9665 29.325 94.5417 30.0549 93.3188 31.1941C90.4186 33.8957 89.7226 38.1819 91.6598 42.2143C94.7802 48.7095 100.149 53.0257 106.039 56.8166C106.786 57.2973 107.323 56.9125 107.896 56.527C110.645 54.6785 113.265 52.6591 115.629 50.3385C118.758 47.2654 121.616 43.9933 122.624 39.5325C123.486 35.7166 121.639 31.684 118.228 29.969C114.683 28.1861 110.688 28.9083 107.713 31.9015C107.121 32.497 106.665 33.1021 105.842 32.139C103.766 29.7123 101.072 28.8338 97.6565 29.1786Z" fill="#F8A450"/>
<path d="M43.2454 33.141C36.6205 27.3179 34.7341 18.188 38.5102 10.5744C42.3941 2.74329 50.6914 -1.46771 59.2513 0.467266C66.6143 2.1317 71.5269 6.80247 73.4979 14.1273C75.319 20.8949 73.5913 26.8975 68.6797 31.9321C64.7192 35.9917 59.8849 37.9752 54.2219 37.687C50.1024 37.4773 46.5156 35.792 43.2454 33.141Z" fill="#282828"/>
</svg>
