<svg width="151" height="120" viewBox="0 0 151 120" fill="none" xmlns="http://www.w3.org/2000/svg">
<path d="M108.287 83.9445C107.22 87.5855 106.194 91.1168 105.179 94.6132C105.695 94.9921 105.922 94.6298 106.14 94.4234C108.467 92.2179 110.861 90.0757 113.085 87.7698C121.747 78.7878 135.834 80.2082 142.501 90.7953C146.111 96.5268 147.863 102.938 149.208 109.48C149.813 112.425 150.244 115.403 150.43 118.414C150.499 119.521 150.212 119.993 149.011 119.989C138.173 119.956 127.334 119.957 116.495 119.984C115.359 119.987 114.919 119.575 114.946 118.452C114.991 116.509 114.932 114.567 114.649 112.637C114.392 110.885 113.787 110.519 112.197 111.322C109.199 112.837 106.393 114.67 103.636 116.583C101.08 118.356 98.3795 119.824 95.1059 119.236C90.0219 118.322 87.0863 113.691 87.9317 108.151C88.7828 102.573 90.9005 97.4018 92.9819 92.2236C95.1918 86.7254 97.5097 81.2706 99.7623 75.7894C100.38 74.2869 101.078 72.8784 102.506 71.9453C104.882 70.3927 107.763 70.9932 109.183 73.4531C109.948 74.7799 110.36 76.2133 109.928 77.7837C109.375 79.7952 108.859 81.8173 108.287 83.9445Z" fill="#282828"/>
<path d="M45.578 100.632C46.2867 101.752 46.8933 101.239 47.5098 100.671C50.7594 97.6748 54.0078 94.6774 57.2677 91.6926C57.7658 91.2365 58.2803 90.7718 58.8602 90.4377C59.8136 89.8884 60.8173 89.893 61.751 90.5373C62.7147 91.2022 63.1397 92.1218 62.988 93.3002C62.934 93.7203 62.7136 94.1375 62.9548 94.647C64.1327 94.6923 65.1788 94.1436 66.2393 93.7426C68.1005 93.0387 69.9245 92.2363 71.7624 91.4714C72.6688 91.0942 73.5915 90.8248 74.5918 90.931C77.0349 91.1903 78.3969 93.4721 77.4123 95.7288C76.5602 97.6818 74.9523 98.9541 73.2517 100.105C70.4506 101.999 67.3523 103.267 64.138 104.257C62.8578 104.651 61.7777 105.261 60.8386 106.26C57.7791 109.517 54.581 112.645 51.5596 115.936C47.3716 120.497 43.068 119.844 38.8149 116.117C37.5939 115.047 36.456 113.883 35.1692 112.656C34.5044 114.568 34.5566 116.32 34.5331 118.047C34.5146 119.406 34.1083 120.009 32.5828 120C22.3314 119.938 12.0794 119.962 1.82757 119.978C0.754896 119.98 -0.134934 119.949 0.0169595 118.471C1.04145 108.503 2.70822 98.6697 8.28472 90.0924C13.7749 81.6478 24.6819 79.0799 33.1928 84.8198C35.3124 86.2493 37.0469 88.0696 38.4795 90.1838C40.8224 93.6416 43.1711 97.0956 45.578 100.632Z" fill="#282828"/>
<path d="M19.4142 77.2479C10.7234 69.4344 11.887 56.7111 21.7226 51.0594C31.4167 45.4889 44.4179 52.0794 45.4061 63.0778C46.0438 70.1767 43.0843 75.4922 36.9663 78.8743C30.9048 82.2252 25.002 81.3884 19.4142 77.2479Z" fill="#282828"/>
<path d="M109.415 53.5961C119.462 45.0797 133.882 50.0038 136.249 62.663C137.801 70.9596 131.252 79.7426 122.712 80.909C119.094 81.4032 115.785 80.6643 112.642 78.8791C111.659 78.3208 111.195 77.6547 111.191 76.4551C111.183 72.9605 109.4 70.7855 106.029 70.0596C105.129 69.8657 104.86 69.3254 104.713 68.5644C103.594 62.7717 105.179 57.8198 109.415 53.5961Z" fill="#282828"/>
<path d="M147.733 64.9914C147.296 64.37 147.376 63.8105 147.464 63.2172C148.32 57.4795 146.519 52.8036 141.862 49.2703C141.09 48.6849 139.809 48.1589 140.712 46.9119C141.641 45.6283 142.627 46.6032 143.447 47.2334C148.895 51.4209 151.128 56.9225 150.063 63.7233C149.817 65.2986 149.21 65.6274 147.733 64.9914Z" fill="#282828"/>
<path d="M141.474 62.6904C141.989 58.7489 140.764 55.7202 137.434 53.6257C136.757 53.1999 136.384 52.551 136.866 51.7717C137.321 51.0357 137.982 50.9679 138.758 51.3518C142.559 53.2316 145.14 58.8883 144.066 63.0015C143.871 63.7489 143.603 64.4857 142.706 64.4347C141.777 64.3819 141.387 63.7293 141.474 62.6904Z" fill="#282828"/>
<path d="M75.0594 31.0332C75.0594 23.0326 82.7247 16.0392 92.8554 16.0392C102.986 16.0393 110.651 23.0326 110.651 31.0332C110.651 35.1925 108.629 39.0212 105.238 41.7933C104.637 42.2839 104.367 43.0727 104.541 43.8282L105.411 47.6133L101.42 45.0907L101.32 45.0314C100.813 44.7502 100.209 44.6972 99.6581 44.8896C97.5677 45.6206 95.2714 46.0267 92.8554 46.0267V48.0652C95.5001 48.0652 98.0239 47.6206 100.331 46.8139L107.342 51.2463L107.383 51.2698C107.803 51.4925 108.308 51.1198 108.198 50.6436L106.528 43.3719C110.264 40.3178 112.615 36.0249 112.688 31.2601L112.69 31.0332C112.69 21.6266 103.81 14.0008 92.8554 14.0007C81.9012 14.0007 73.0209 21.6265 73.0209 31.0332L73.0225 31.2533C73.1599 40.5585 81.9869 48.0652 92.8554 48.0652V46.0267C82.7248 46.0267 75.0595 39.0337 75.0594 31.0332Z" fill="#282828"/>
<path d="M66.1243 0C81.163 0 93.3543 10.5078 93.3543 23.4697C93.3543 36.4317 81.163 46.9395 66.1243 46.9395C62.4934 46.9395 59.0287 46.3267 55.8613 45.2151L46.2353 51.3228C45.6485 51.695 44.9051 51.1696 45.0602 50.4922L47.3537 40.4721C42.1424 36.1968 38.8942 30.1603 38.8942 23.4697C38.8942 10.5078 51.0855 0 66.1243 0Z" fill="#F8A450"/>
<ellipse cx="55.2323" cy="23.5993" rx="2.07467" ry="2.07467" fill="#282828"/>
<ellipse cx="66.1244" cy="23.5993" rx="2.07467" ry="2.07467" fill="#282828"/>
<ellipse cx="77.0164" cy="23.5993" rx="2.07467" ry="2.07467" fill="#282828"/>
</svg>
